<svg xmlns="http://www.w3.org/2000/svg" width="100" height="100">
    <style>
        path {
            fill: #111;
        }
        @media (prefers-color-scheme: dark) {
            path {
                fill: #fff;
            }
        }
    </style>
  <path d="M48.948 201.698q.413.207.62.207 10.335 0 10.335 4.961-.62 4.444-.62 6.615v1.447q.414 0 .414.206 8.371-2.17 12.402-4.34h.413q2.067 0 2.687 2.893 0 3.308-16.33 6.201v7.235q12.093-3.72 17.777-3.72 11.783 0 13.643 7.44v.828q0 7.958-24.805 19.843-9.095 4.858-9.095 9.302 0 3.617 5.375 5.374 1.137 1.24 1.447 2.48 0 2.378-5.788 4.755-2.894 2.274-2.894 4.34v.208q1.964 2.273 5.994 2.273h4.135q1.24 0 3.307-.206 3.927.723 3.927 3.307 0 2.687-7.441 2.687-14.263-1.137-14.263-7.028v-.207q0-4.03 6.201-9.301v-.207q-4.34-3.41-4.34-7.028.206-3.307 3.72-7.235v-.413q-1.653 0-3.72-3.307-13.436-9.715-15.71-9.715-3.514 1.136-10.335 8.681-1.034.207-1.24.207-3.928-1.344-3.928-5.788v-1.033q0-5.892 5.374-13.643 1.034 0 1.86 1.034-2.273 5.374-2.273 8.061v2.894q.103.413.413.413h.207q1.137 0 10.955-5.58 7.442-3.928 16.95-7.855v-8.475H52.67q-9.612 0-14.056-5.581 0-.207 1.24-1.86 4.547 3.1 9.302 3.1h2.894l2.48-.207v-5.168q0-4.857-4.548-6.2-1.963-.62-2.067-.62 0-1.551 1.034-2.275zm9.715 44.235q0 1.86.207 5.375-.207.31-.207 1.033 5.168-2.48 13.85-8.475 10.541-7.751 10.541-11.368v-1.654q0-3.928-5.787-4.548h-2.48q-5.685 0-16.124 4.341zm-19.637-5.994q.93.62 14.883 6.614h.207v-10.542q0-1.136.206-3.513-5.064 1.033-15.296 7.44z" transform="translate(0 -185.875)"/>
</svg>
